<svg xmlns="http://www.w3.org/2000/svg" viewBox="0 0 518 502.33">
	<defs>
		<style>
			.cls-1 {
				fill: #d1d1d1;
				stroke: #000;
				stroke-miterlimit: 10;
				stroke-width: 0.25px
			}
			
			.stroke {
				stroke: #000;
				stroke-miterlimit: 10;
				stroke-width: 0.25px
			}
			
			.no-stroke {
				stroke-width: 0px !important;
			}

			.cls-2 {
				fill: #0a1020
			}

			.cls-14 {
				fill: #fff
			}

			.cls-4 {
				letter-spacing: -0.03398em
			}

			.cls-5 {
				letter-spacing: -0.01402em
			}

			.cls-7 {
				letter-spacing: -0.01002em
			}

			.cls-9 {
				letter-spacing: -0.00998em
			}

			.cls-12 {
				fill: #b6cdff;
				fill-rule: evenodd
			}

			.cls-13 {
				font-size: 7.71913px
			}

			.cls-13,
			.cls-17 {
				fill: #151b2b
			}

			.cls-13 {
				font-family: Montserrat-Medium, Montserrat
			}
		</style>
		<clipPath id="clip-bg">
			<rect width="229.26" height="104.03" rx="4.83" ry="4.83" />
		</clipPath>
		<!--<g id="paths"> <path id="to-mireks" d="M65.24553,65.16667V208.9542S65.04634,219.19,75.68984,219.19H197.83333" class="cls-18"/> <path id="to-us" d="M199.375,219.71334H381.66667c6.02083,0,11.70833.55749,13.58333-12.81751,1.531-7.81874,1.5-8.40176,29.5-7.86755,28.75,0,45,.465,45,.465" class="cls-18"/> <path id="to-krus" d="M198.6875,219.71334H380.97917c6.02083,0,13.53734-1.87136,13.58333-12.81751.0625-14.875-.45583-46.39708,0-62.0625.08721-2.997,1.73507-8.605,8.875-8.605,12.04167,0,51.81248.2699,51.81248.2699" class="cls-18"/> <path id="to-zus" d="M198.6875,219.71334H380.97917c6.02083,0,13.53734-1.87136,13.58333-12.81751.0625-14.875-.45583-46.39708,0-62.0625v-62.625s.39583-8.49,8.35417-8.49H452.375" class="cls-18"/> </g>-->
	</defs>
	<g id="droga">
		<path d="M425.32,134.97347v2.50977h-3.71a1.62271,1.62271,0,0,1,.14-2.14991l.36-.35986Z" class="cls-1" />
		<path
			d="M421.75,198.33333a1.6268,1.6268,0,0,0-.27,1.95H403.29a7.61043,7.61043,0,0,0-7.02,4.71,4.93536,4.93536,0,0,1-1.74,9.52,11.01664,11.01664,0,0,1-9.88,6.14014H75.06a11.05776,11.05776,0,0,1-11.05-11.04v-90.26a11.03859,11.03859,0,0,1,5.96-9.79,10.9185,10.9185,0,0,1,5.09-1.25v2.51a8.5377,8.5377,0,0,0-8.53,8.53v90.26a8.5377,8.5377,0,0,0,8.53,8.53H384.65a8.54364,8.54364,0,0,0,7.38-4.26,4.92616,4.92616,0,0,1,1.15-9.07007V150.37337a4.93146,4.93146,0,0,1,0-9.54v-58.26a10.12739,10.12739,0,0,1,10.11-10.11h18.75l-.1.1a1.64173,1.64173,0,0,0,0,2.32007l.09.09H403.29a7.60944,7.60944,0,0,0-7.6,7.6V138.4432a10.0368,10.0368,0,0,1,7.6-3.46973h18.82l-.36.35986a1.62271,1.62271,0,0,0-.14,2.14991H403.29a7.559,7.559,0,0,0-6.54,3.76,4.93582,4.93582,0,0,1-1.06,9.14013v50.84986a10.06244,10.06244,0,0,1,7.6-3.46h19.02Z"
			class="cls-1 no-stroke" />
		<path d="M425.32,72.46334v2.51h-3.29l-.09-.09a1.64173,1.64173,0,0,1,0-2.32007l.1-.1Z" class="cls-1" />
		<path d="M425.32,197.77327v2.51h-3.84a1.6268,1.6268,0,0,1,.27-1.95l.56-.56006Z" class="cls-1" />
	</g>
	<g id="dokumenty">
		<path
			d="M65.269,121.36354a1.40369,1.40369,0,0,1-1.002-.41407L51.23975,107.92311a1.41856,1.41856,0,0,1,0-2.00391L64.26709,92.89088a1.42348,1.42348,0,0,1,2.00342,0l13.02783,13.02734a1.41975,1.41975,0,0,1,0,2.00489L66.27051,120.95045A1.40487,1.40487,0,0,1,65.269,121.36354Z"
			class="cls-14 stroke" />
		<!--<path d="M65.269,92.603a1.28768,1.28768,0,0,1,.91335.377L79.2099,106.00758a1.29544,1.29544,0,0,1,0,1.82666L66.18236,120.86158a1.295,1.295,0,0,1-1.82669,0L51.32813,107.83424a1.29543,1.29543,0,0,1,0-1.82666L64.35567,92.98a1.28767,1.28767,0,0,1,.91334-.377m0-.25a1.53061,1.53061,0,0,0-1.09015.45019L51.15134,105.83082a1.54543,1.54543,0,0,0,0,2.18018l13.02756,13.02734a1.545,1.545,0,0,0,2.18027,0L79.38669,108.011a1.54539,1.54539,0,0,0,0-2.18018L66.35915,92.80323A1.53055,1.53055,0,0,0,65.269,92.353Z"/>-->
		<path
			d="M70.2083,107.25708l.743.28475c.24622.09436.29215.30156.10261.4628l-3.88952,3.30877a.86183.86183,0,0,1-.789.1211l-6.83563-2.61971c-.24622-.09436-.29216-.30155-.10261-.4628l1.02958-.87585L65.965,109.5833a2.01375,2.01375,0,0,0,1.841-.28257Zm-6.38983-2.44885-1.93181-.74035-2.40236,2.04365c-.18954.16124-.1436.36844.10261.4628l6.83564,2.6197a.8618.8618,0,0,0,.789-.1211l3.88953-3.30876c.18954-.16125.1436-.36845-.10261-.4628L66.09463,103.422l-1.48717,1.26512A.865.865,0,0,1,63.81847,104.80823Zm1.15348-1.69245-2.16783.33273a.76433.76433,0,0,0-.37323.1564l-.08664.0737,1.78321.6834,1.37277-1.1678-.11255-.04313A.83721.83721,0,0,0,64.972,103.11578Z" />
	</g>
	<g id="comment" transform="translate(113.94,73.72)">
		<g id="comment-bg">
			<rect width="229.26" height="104.03" class="cls-2" rx="4.83" ry="4.83" />
		</g>
		<g clip-path="url(#clip-bg)">
			<text id="comment-text" fill="#ffffff" font-family="Montserrat-Light, Montserrat" font-size="13.89"
				transform="translate(20, 20)">
				<!--<tspan x="0" dy="15">Hello there general Kenobi!</tspan> <tspan x="0" dy="15">You are a bold one!</tspan>-->

			</text>
		</g>
	</g>
	<g id="PIT">
		<path
			d="M235.27832,234.15365a1.41065,1.41065,0,0,1-1.00342-.41114l-13-13a1.43047,1.43047,0,0,1-.4414-1.02929,1.40187,1.40187,0,0,1,.41162-.999l13.02978-13.03027a1.43006,1.43006,0,0,1,2.00684,0L249.312,218.71419a1.41459,1.41459,0,0,1,0,1.99805l-13.03027,13.03027A1.41065,1.41065,0,0,1,235.27832,234.15365Z"
			class="cls-14 stroke" />
		<!--<path d="M235.27847,205.39827a1.29019,1.29019,0,0,1,.915.375l13.03,13.03a1.29172,1.29172,0,0,1,0,1.82007l-.03.03-13,13a1.30382,1.30382,0,0,1-1.83,0l-13-13-.03-.03a1.29172,1.29172,0,0,1,0-1.82007l13.03-13.03a1.29019,1.29019,0,0,1,.915-.375m0-.25a1.53189,1.53189,0,0,0-1.09179.44825l-13.03,13.03a1.54169,1.54169,0,0,0,0,2.17358l13.03,13.03a1.55378,1.55378,0,0,0,2.18359,0l13-13a1.55316,1.55316,0,0,0,.47818-1.11694,1.526,1.526,0,0,0-.44821-1.08667l-13.03-13.03a1.53191,1.53191,0,0,0-1.0918-.44825Z"/>-->
		<!--<text class="cls-15" transform="translate(230.72855 222.30671) scale(0.88127 1)" font-size="6.42" letter-spacing="-.01em" font-family="Montserrat-Medium, Montserrat" fill="#0a1020">-->
		<text fill="#0a1020" class="cls-15" font-family="Montserrat-Medium, Montserrat" font-weight="500" font-size="6.42"
			letter-spacing="-.01em" transform="translate(221.27832,222.15365) scale(0.88127 1)">
			P<tspan x="4.56993" y="0" class="cls-16">IT</tspan>
		</text>
	</g>
	<g id="zus">
		<path
			d="M450.48 102.86a1.75 1.75 0 0 1-1.25-.52l-27.38-27.37a1.77 1.77 0 0 1 0-2.5l27.38-27.38a1.77 1.77 0 0 1 2.5 0l27.37 27.39a1.77 1.77 0 0 1 0 2.5l-27.37 27.36a1.75 1.75 0 0 1-1.25.52z"
			class="cls-12" />
		<path
			d="M450.48 44.7a1.64 1.64 0 0 1 1.16.48l27.37 27.38a1.64 1.64 0 0 1 0 2.32l-27.37 27.37a1.64 1.64 0 0 1-2.32 0l-27.29-27.28-.09-.09a1.64 1.64 0 0 1 0-2.32l27.38-27.38a1.64 1.64 0 0 1 1.16-.48m0-.25a1.88 1.88 0 0 0-1.34.56l-27.38 27.38a1.9 1.9 0 0 0 0 2.67l.1.09 27.28 27.28a1.9 1.9 0 0 0 2.68 0l27.37-27.37a1.9 1.9 0 0 0 0-2.67L451.82 45a1.88 1.88 0 0 0-1.34-.56z" />
		<text class="cls-13" transform="translate(442.5 78.15)" font-weight="700" >
			ZUS
		</text>
	</g>
	<g id="krus">
		<path
			d="M450.28 165.64a1.76 1.76 0 0 1-1.25-.52l-27.37-27.38a1.3 1.3 0 0 1-.15-.19 1.75 1.75 0 0 1 .15-2.3l27.37-27.38a1.77 1.77 0 0 1 2.5 0l27.38 27.37a1.77 1.77 0 0 1 0 2.5l-27.38 27.38a1.76 1.76 0 0 1-1.25.52z"
			class="cls-12" />
		<path
			d="M450.28 107.48a1.64 1.64 0 0 1 1.16.48l27.38 27.37a1.64 1.64 0 0 1 0 2.32l-27.38 27.38a1.64 1.64 0 0 1-2.32 0l-27.37-27.38a1.16 1.16 0 0 1-.14-.17 1.62 1.62 0 0 1 .14-2.15l27.37-27.37a1.64 1.64 0 0 1 1.16-.48m0-.25a1.88 1.88 0 0 0-1.34.56l-27.37 27.37a1.88 1.88 0 0 0-.16 2.48 1.31 1.31 0 0 0 .16.19l27.37 27.38a1.9 1.9 0 0 0 2.68 0L479 137.83a1.9 1.9 0 0 0 0-2.67l-27.38-27.37a1.88 1.88 0 0 0-1.34-.56z" />
		<text class="cls-13" transform="translate(439.04 139.4)" font-weight="700">
			KRUS
		</text>
	</g>
	<g id="us">
		<path
			d="M450.28 228.64a1.76 1.76 0 0 1-1.25-.52l-27.37-27.38a1.53 1.53 0 0 1-.3-.4 1.76 1.76 0 0 1 .3-2.1l27.37-27.37a1.77 1.77 0 0 1 2.5 0l27.38 27.37a1.77 1.77 0 0 1 0 2.5l-27.38 27.38a1.76 1.76 0 0 1-1.25.52z"
			class="cls-12" />
		<path
			d="M450.28 170.47a1.64 1.64 0 0 1 1.16.48l27.38 27.38a1.64 1.64 0 0 1 0 2.32l-27.38 27.38a1.64 1.64 0 0 1-2.32 0l-27.37-27.38a1.41 1.41 0 0 1-.27-.37 1.63 1.63 0 0 1 .27-1.95l.56-.56 26.81-26.82a1.64 1.64 0 0 1 1.16-.48m0-.25a1.88 1.88 0 0 0-1.34.56l-26.8 26.82-.57.56a1.88 1.88 0 0 0-.3 2.25 1.63 1.63 0 0 0 .3.42l27.37 27.38a1.9 1.9 0 0 0 2.68 0L479 200.83a1.9 1.9 0 0 0 0-2.67l-27.38-27.38a1.88 1.88 0 0 0-1.34-.56z" />
		<text class="cls-13" transform="translate(444.57 204.65)" font-weight="700">
			US
		</text>
	</g>
	<g id="mireks">
		<path
			d="M208.87 272.54a1.76 1.76 0 0 1-1.25-.52l-51.59-51.58a1.77 1.77 0 0 1 0-2.5l51.59-51.58a1.77 1.77 0 0 1 2.5 0l51.58 51.58a1.77 1.77 0 0 1 0 2.5l-51.58 51.58a1.76 1.76 0 0 1-1.25.52z"
			class="cls-12" />
		<path
			d="M208.87 165.96a1.64 1.64 0 0 1 1.16.49l51.58 51.58a1.64 1.64 0 0 1 0 2.32l-51.58 51.58a1.64 1.64 0 0 1-2.32 0l-51.59-51.58a1.64 1.64 0 0 1 0-2.32l51.59-51.58a1.64 1.64 0 0 1 1.16-.49m0-.25a1.88 1.88 0 0 0-1.34.56l-51.58 51.58a1.9 1.9 0 0 0 0 2.68l51.58 51.58a1.9 1.9 0 0 0 2.67 0l51.59-51.58a1.9 1.9 0 0 0 0-2.68l-51.59-51.58a1.88 1.88 0 0 0-1.33-.56z" />
		<path
			d="M201.43 220.67v10.8h-11.7v-22.52l11.7 11.72zM228.01 194.09v37.39h-11.7V205.8L228 194.1zM201.43 220.67l14.87-14.87-14.87-11.71v26.58z"
			class="cls-2" />
		<path
			d="M195.4 239.4a1.65 1.65 0 0 0-.91.28 4.2 4.2 0 0 0-.95.95v3.65h-.5v-5.11l.5-.17v1.17a3.7 3.7 0 0 1 .95-.93 1.88 1.88 0 0 1 1.02-.3 1.72 1.72 0 0 1 1.7 1.27 3.8 3.8 0 0 1 1.01-.97 2.02 2.02 0 0 1 1.06-.3 1.68 1.68 0 0 1 1.32.56 2.2 2.2 0 0 1 .5 1.51v3.27h-.5v-3.22a1.82 1.82 0 0 0-.37-1.23 1.3 1.3 0 0 0-1.04-.44 1.72 1.72 0 0 0-.92.3 4.46 4.46 0 0 0-.98.9 1.52 1.52 0 0 1 .02.21l.01.21v3.27h-.5v-3.22a1.82 1.82 0 0 0-.37-1.23 1.3 1.3 0 0 0-1.04-.44zM203.42 236.82a.4.4 0 0 1 .4.4.4.4 0 0 1-.12.28.4.4 0 0 1-.57 0 .4.4 0 0 1-.1-.29.4.4 0 0 1 .39-.4zm.24 7.46h-.49v-5.2h.5zM206.29 240.79v3.5h-.5v-5.12l.5-.17v1.36a6.87 6.87 0 0 1 1.1-1.1 1.5 1.5 0 0 1 1.05-.26.72.72 0 0 1 .14.03l.06.52a.58.58 0 0 0-.16-.04 1.4 1.4 0 0 0-.17-.01 1.63 1.63 0 0 0-.88.28 6.87 6.87 0 0 0-1.14 1.01zM214.08 243.29l-.18.59a3.86 3.86 0 0 1-.88.4 3.2 3.2 0 0 1-.91.12 2.52 2.52 0 0 1-1.9-.75 3.07 3.07 0 0 1-.02-3.94 2.26 2.26 0 0 1 1.76-.79 2.13 2.13 0 0 1 1.7.75 2.85 2.85 0 0 1 .64 1.92v.19a.6.6 0 0 1-.02.11h-4.3a2.22 2.22 0 0 0 .67 1.5 2.12 2.12 0 0 0 1.51.56 2.84 2.84 0 0 0 .93-.16 4.85 4.85 0 0 0 1-.5zm-2.15-3.93a1.78 1.78 0 0 0-1.37.62 2.28 2.28 0 0 0-.6 1.5h3.85a2.4 2.4 0 0 0-.54-1.54 1.69 1.69 0 0 0-1.34-.58zM220.21 244.28h-.66l-2.77-2.44h-.37v2.44h-.5v-7.82l.5-.2v5.17h.4l2.62-2.36h.65v.02l-2.87 2.53 3 2.64zM223.22 241.4a3.93 3.93 0 0 1 1.49.64 1.14 1.14 0 0 1 .38.9 1.26 1.26 0 0 1-.55 1.04 2.23 2.23 0 0 1-1.38.42 3.43 3.43 0 0 1-1.13-.19 3.26 3.26 0 0 1-.98-.54l-.1-.63h.03a3.65 3.65 0 0 0 1.05.68 2.97 2.97 0 0 0 1.16.23 1.73 1.73 0 0 0 1.01-.28.84.84 0 0 0 .41-.71.74.74 0 0 0-.31-.62 4.29 4.29 0 0 0-1.27-.5 4.03 4.03 0 0 1-1.47-.63 1.1 1.1 0 0 1-.38-.87 1.2 1.2 0 0 1 .53-1 2.16 2.16 0 0 1 1.32-.39 3.03 3.03 0 0 1 .9.14 3.42 3.42 0 0 1 .84.4v.53h-.03a3.43 3.43 0 0 0-.86-.46 2.56 2.56 0 0 0-.88-.17 1.67 1.67 0 0 0-.96.26.76.76 0 0 0-.38.65.72.72 0 0 0 .3.6 4.29 4.29 0 0 0 1.26.5z"
			class="cls-17" />
	</g>
	<g id="osoba">
		<path
			d="M65.27 126.55a1.76 1.76 0 0 1-1.25-.52L36.9 98.91a1.77 1.77 0 0 1 0-2.5l27.12-27.12a1.77 1.77 0 0 1 2.5 0L93.64 96.4a1.77 1.77 0 0 1 0 2.5l-27.12 27.12a1.76 1.76 0 0 1-1.25.52z"
			class="cls-12" />
		<path
			d="M65.27 68.9a1.64 1.64 0 0 1 1.16.48L93.55 96.5a1.64 1.64 0 0 1 0 2.32l-27.12 27.12a1.64 1.64 0 0 1-2.32 0L36.99 98.82a1.64 1.64 0 0 1 0-2.32L64.1 69.38a1.64 1.64 0 0 1 1.16-.48m0-.25a1.88 1.88 0 0 0-1.34.55L36.81 96.32a1.9 1.9 0 0 0 0 2.68l27.12 27.12a1.9 1.9 0 0 0 2.68 0L93.73 99a1.9 1.9 0 0 0 0-2.68L66.6 69.2a1.88 1.88 0 0 0-1.34-.55z" />
		<path
			d="M65.27 97.66a5.95 5.95 0 1 0-5.96-5.96 5.95 5.95 0 0 0 5.96 5.96zm4.17 1.49h-.78a8.1 8.1 0 0 1-6.78 0h-.78a6.25 6.25 0 0 0-6.25 6.25v1.94a2.23 2.23 0 0 0 2.23 2.23h16.38a2.23 2.23 0 0 0 2.23-2.23v-1.94a6.25 6.25 0 0 0-6.25-6.25z"
			class="cls-2" />
	</g>
</svg>