<svg xmlns="http://www.w3.org/2000/svg" width="71.12305" height="18.08301" viewBox="0 0 71.12305 18.08301">
	<defs>
		<style>
			#letters{fill:#848fa3;}
		</style>
	</defs>
	<g id="letters">
		<path d="M5.23779,6.96777a3.65911,3.65911,0,0,0-2.05029.65186A9.32,9.32,0,0,0,1.09033,9.7168v8.10547H0V6.46973l1.09033-.37891V8.69775A8.20333,8.20333,0,0,1,3.19971,6.624a4.16824,4.16824,0,0,1,2.25146-.65185A3.89164,3.89164,0,0,1,7.833,6.71875,3.90877,3.90877,0,0,1,9.24316,8.79248a8.44068,8.44068,0,0,1,2.23975-2.15674,4.4972,4.4972,0,0,1,2.35791-.66357,3.71878,3.71878,0,0,1,2.92676,1.24414,4.8751,4.8751,0,0,1,1.10205,3.35351v7.25245H16.77979V10.665a4.03515,4.03515,0,0,0-.84131-2.72559,2.89684,2.89684,0,0,0-2.311-.97168,3.81408,3.81408,0,0,0-2.0498.65186,9.85278,9.85278,0,0,0-2.169,2.00244,3.28554,3.28554,0,0,1,.05957.47412q.01171.2373.01172.47363v7.25245H8.38965V10.665a4.03257,4.03257,0,0,0-.84131-2.72559A2.8958,2.8958,0,0,0,5.23779,6.96777Z" />
		<path d="M23.01221,1.25586a.842.842,0,0,1,.61621.26074.8436.8436,0,0,1,.26074.61621.89173.89173,0,0,1-.249.64014.88648.88648,0,0,1-1.25586,0,.8917.8917,0,0,1-.249-.64014A.84361.84361,0,0,1,22.396,1.5166.84278.84278,0,0,1,23.01221,1.25586Zm.54492,16.56641H22.46729V6.25684h1.08984Z" />
		<path d="M29.3877,10.07227v7.75H28.29736V6.46973l1.09034-.37891V9.12451a15.22238,15.22238,0,0,1,2.45263-2.4414,3.28794,3.28794,0,0,1,1.90821-.61622,3.209,3.209,0,0,1,.41455.02393,1.71049,1.71049,0,0,1,.31982.07129l.11865,1.16113a1.30312,1.30312,0,0,0-.34375-.09472,2.99155,2.99155,0,0,0-.39111-.02393,3.60575,3.60575,0,0,0-1.94336.61621A15.20919,15.20919,0,0,0,29.3877,10.07227Z" />
		<path d="M46.68848,15.61816l-.40284,1.30372a8.54693,8.54693,0,0,1-1.96728.87646,7.12286,7.12286,0,0,1-2.01416.28467,5.5869,5.5869,0,0,1-4.23047-1.6709,6.15762,6.15762,0,0,1-1.6001-4.44385,6.21383,6.21383,0,0,1,1.56446-4.28955A5.02372,5.02372,0,0,1,41.94873,5.9248,4.71716,4.71716,0,0,1,45.7168,7.584a6.32218,6.32218,0,0,1,1.42187,4.26612v.41455a1.28249,1.28249,0,0,1-.02344.249H37.564A4.91443,4.91443,0,0,0,39.04541,15.855a4.70876,4.70876,0,0,0,3.35352,1.23242,6.31251,6.31251,0,0,0,2.062-.36719A10.75677,10.75677,0,0,0,46.68848,15.61816ZM41.90137,6.89648A3.964,3.964,0,0,0,38.86768,8.271a5.05941,5.05941,0,0,0-1.32715,3.34179h8.53174A5.31122,5.31122,0,0,0,44.87549,8.188,3.75263,3.75263,0,0,0,41.90137,6.89648Z" />
		<path d="M60.292,17.82227H58.82275L52.68457,12.395H51.855v5.42725H50.76465V.4502L51.855,0V11.49414h.877L58.562,6.25684h1.4458V6.3042l-6.37549,5.6167,6.65967,5.854Z" />
		<path d="M66.97559,11.42334A8.73949,8.73949,0,0,1,70.27,12.84521a2.53642,2.53642,0,0,1,.853,1.99073,2.79932,2.79932,0,0,1-1.23242,2.32275,4.95161,4.95161,0,0,1-3.05713.92432,7.59772,7.59772,0,0,1-2.50049-.41455,7.17313,7.17313,0,0,1-2.16846-1.19727l-.21338-1.39795.04737-.02392A8.07881,8.07881,0,0,0,64.333,16.57813a6.60448,6.60448,0,0,0,2.57129.50927,3.84283,3.84283,0,0,0,2.25195-.62793,1.8656,1.8656,0,0,0,.90039-1.57617,1.64216,1.64216,0,0,0-.6875-1.37451A9.46,9.46,0,0,0,66.54883,12.395a8.9241,8.9241,0,0,1-3.27051-1.38672,2.43191,2.43191,0,0,1-.82959-1.93115,2.65173,2.65173,0,0,1,1.16162-2.21631,4.78839,4.78839,0,0,1,2.93848-.86475,6.67533,6.67533,0,0,1,2.00293.30811,7.55833,7.55833,0,0,1,1.86035.87695V8.36572h-.07129A7.61779,7.61779,0,0,0,68.43311,7.335,5.6984,5.6984,0,0,0,66.478,6.96777a3.70341,3.70341,0,0,0-2.1211.56885,1.69255,1.69255,0,0,0-.8413,1.44531,1.59849,1.59849,0,0,0,.67529,1.33936A9.49517,9.49517,0,0,0,66.97559,11.42334Z" />
	</g>
</svg>
