<svg xmlns="http://www.w3.org/2000/svg" viewBox="0 0 144.01 150.27">
    <defs>
        <style>
            .cls-3 { fill: #848fa3; }
        </style>
    </defs>
    <g id="text">
        <path id="m" d="M43,121.6a3.7,3.7,0,0,0-2,.65,9.6,9.6,0,0,0-2.09,2.1v8.11H37.77V121.1l1.09-.38v2.61A8,8,0,0,1,41,121.26a4.09,4.09,0,0,1,2.25-.65,3.87,3.87,0,0,1,2.38.74A3.93,3.93,0,0,1,47,123.43a8.29,8.29,0,0,1,2.24-2.16,4.5,4.5,0,0,1,2.36-.66,3.7,3.7,0,0,1,2.92,1.24,4.85,4.85,0,0,1,1.11,3.35v7.26H54.55V125.3a4.05,4.05,0,0,0-.84-2.73,3,3,0,0,0-2.32-1,3.86,3.86,0,0,0-2,.65,10,10,0,0,0-2.16,2,2.42,2.42,0,0,1,0,.47c0,.16,0,.32,0,.47v7.26H46.16V125.3a4,4,0,0,0-.85-2.73A2.92,2.92,0,0,0,43,121.6Z" class="cls-3"/>
        <path id="i" d="M60.78,115.89a.91.91,0,0,1,.88.88.93.93,0,0,1-.25.64.89.89,0,0,1-1.26,0,.89.89,0,0,1-.25-.64.85.85,0,0,1,.26-.62A.87.87,0,0,1,60.78,115.89Zm.54,16.57H60.23V120.89h1.09Z" class="cls-3"/>
        <path id="r" d="M67.15,124.71v7.75H66.06V121.1l1.09-.38v3a15,15,0,0,1,2.46-2.44,3.3,3.3,0,0,1,1.91-.62l.41,0a1.5,1.5,0,0,1,.32.08l.12,1.16a1.4,1.4,0,0,0-.35-.1l-.39,0a3.62,3.62,0,0,0-1.94.61A16,16,0,0,0,67.15,124.71Z" class="cls-3"/>
        <path id="e" d="M84.46,130.25l-.41,1.31a8.67,8.67,0,0,1-2,.87,7,7,0,0,1-2,.29,5.61,5.61,0,0,1-4.23-1.67,6.83,6.83,0,0,1,0-8.74,5,5,0,0,1,3.92-1.75,4.68,4.68,0,0,1,3.76,1.66,6.31,6.31,0,0,1,1.43,4.26v.42a1,1,0,0,1,0,.25H75.33a5,5,0,0,0,1.48,3.34,4.73,4.73,0,0,0,3.36,1.23,6.19,6.19,0,0,0,2.06-.37A10.67,10.67,0,0,0,84.46,130.25Zm-4.79-8.72a4,4,0,0,0-3,1.37,5.09,5.09,0,0,0-1.32,3.35h8.53a5.32,5.32,0,0,0-1.2-3.43A3.75,3.75,0,0,0,79.67,121.53Z" class="cls-3"/>
        <path id="k" d="M98.06,132.46H96.59L90.45,127h-.83v5.43H88.53V115.08l1.09-.45v11.5h.88l5.83-5.24h1.44v0l-6.37,5.61,6.66,5.86Z" class="cls-3"/>
        <path id="s" d="M104.74,126.06a8.65,8.65,0,0,1,3.3,1.42,2.52,2.52,0,0,1,.85,2,2.79,2.79,0,0,1-1.23,2.32,4.93,4.93,0,0,1-3.06.93,7.5,7.5,0,0,1-2.5-.42,6.89,6.89,0,0,1-2.17-1.2l-.21-1.39,0,0a8.08,8.08,0,0,0,2.33,1.53,6.58,6.58,0,0,0,2.57.51,3.83,3.83,0,0,0,2.25-.63,1.86,1.86,0,0,0,.9-1.57,1.67,1.67,0,0,0-.68-1.38,9.59,9.59,0,0,0-2.82-1.11,9,9,0,0,1-3.28-1.39,2.42,2.42,0,0,1-.82-1.93,2.65,2.65,0,0,1,1.16-2.22,4.81,4.81,0,0,1,2.94-.86,6.57,6.57,0,0,1,2,.31,7.87,7.87,0,0,1,1.86.87V123h-.07a7.54,7.54,0,0,0-1.91-1,5.56,5.56,0,0,0-2-.37,3.7,3.7,0,0,0-2.12.57,1.69,1.69,0,0,0-.84,1.45A1.58,1.58,0,0,0,102,125,9.62,9.62,0,0,0,104.74,126.06Z" class="cls-3"/>
    </g>
</svg>
